<svg width="173" height="184" viewBox="0 0 173 184" fill="none" xmlns="http://www.w3.org/2000/svg">
<path d="M162.368 30.0737L93.1677 1.32085C91.0598 0.44885 88.8001 0 86.518 0C84.2359 0 81.9762 0.44885 79.8683 1.32085L10.6683 30.0737C4.21687 32.7333 0 39.023 0 45.9955C0 117.338 41.2677 166.649 79.8323 182.679C84.0852 184.44 88.8788 184.44 93.1317 182.679C124.019 169.848 173 125.533 173 45.9955C173 39.023 168.783 32.7333 162.368 30.0737Z" fill="#FBC02D"/>
<path d="M53.9267 37.4634C46.3578 39.2419 43.1043 75.9954 43.1043 75.9954L77.6584 68.4983C77.6584 68.4983 61.0752 35.7837 53.9267 37.4634Z" fill="#525252"/>
<g style="mix-blend-mode:multiply">
<path d="M55.5095 43.8228C49.8747 45.1468 47.4526 72.5085 47.4526 72.5085L73.1769 66.9271C73.1769 66.9271 60.8313 42.5723 55.5095 43.8228Z" fill="#525252"/>
</g>
<path d="M116.314 37.4634C123.883 39.2419 127.137 75.9954 127.137 75.9954L92.5828 68.4983C92.5828 68.4983 109.166 35.7837 116.314 37.4634Z" fill="#525252"/>
<g style="mix-blend-mode:multiply">
<path d="M114.732 43.8228C120.366 45.1468 122.789 72.5085 122.789 72.5085L97.0643 66.9271C97.0643 66.9271 109.41 42.5723 114.732 43.8228Z" fill="#525252"/>
</g>
<path d="M89.2578 28.7495C79.5876 40.8161 77.896 47.87 76.374 64.6339" stroke="#5EA985" stroke-width="1.10842" stroke-linecap="round"/>
<path d="M85.0551 39.1083C83.0181 39.4227 80.9534 41.0453 80.9534 41.0453C80.9534 41.0453 83.4112 41.9699 85.4483 41.6555C87.4853 41.3411 89.55 39.7185 89.55 39.7185C89.55 39.7185 87.0922 38.794 85.0551 39.1083Z" fill="#5EA985"/>
<path d="M78.2376 37.6356C79.0714 39.5206 81.1756 41.0917 81.1756 41.0917C81.1756 41.0917 81.4284 38.4779 80.5945 36.593C79.7607 34.708 77.6566 33.1369 77.6566 33.1369C77.6566 33.1369 77.4037 35.7507 78.2376 37.6356Z" fill="#5EA985"/>
<path d="M82.6818 45.6662C80.6713 46.1202 78.7233 47.8813 78.7233 47.8813C78.7233 47.8813 81.2391 48.6342 83.2496 48.1802C85.2601 47.7261 87.2081 45.9651 87.2081 45.9651C87.2081 45.9651 84.6923 45.2122 82.6818 45.6662Z" fill="#5EA985"/>
<path d="M81.0139 52.0951C79.1177 52.903 77.5178 54.9853 77.5178 54.9853C77.5178 54.9853 80.1279 55.2741 82.0241 54.4662C83.9203 53.6583 85.5202 51.576 85.5202 51.576C85.5202 51.576 82.9101 51.2872 81.0139 52.0951Z" fill="#5EA985"/>
<path d="M75.5079 44.4278C76.396 46.2878 78.5447 47.7973 78.5447 47.7973C78.5447 47.7973 78.7218 45.1773 77.8337 43.3173C76.9456 41.4573 74.7968 39.9477 74.7968 39.9477C74.7968 39.9477 74.6198 42.5678 75.5079 44.4278Z" fill="#5EA985"/>
<path d="M73.9142 52.2809C75.0087 54.0275 77.3156 55.282 77.3156 55.282C77.3156 55.282 77.1926 52.6589 76.0981 50.9124C75.0037 49.1658 72.6967 47.9112 72.6967 47.9112C72.6967 47.9112 72.8197 50.5344 73.9142 52.2809Z" fill="#5EA985"/>
<path fill-rule="evenodd" clip-rule="evenodd" d="M86.0485 33.4845C86.1085 33.2129 86.1768 32.9503 86.2516 32.6995C86.0417 32.8559 85.8185 33.0101 85.584 33.1597C83.8182 34.2861 82.0824 34.7221 81.707 34.1335C81.3315 33.5449 82.4585 32.1546 84.2243 31.0282C84.4588 30.8786 84.6927 30.7412 84.923 30.6168C84.664 30.5789 84.3971 30.5302 84.1255 30.4701C82.0805 30.018 80.5447 29.0989 80.6954 28.4172C80.8461 27.7356 82.6262 27.5494 84.6712 28.0015C84.9428 28.0615 85.2054 28.1298 85.4563 28.2047C85.2999 27.9947 85.1456 27.7715 84.9961 27.537C83.8696 25.7713 83.4336 24.0355 84.0222 23.66C84.6108 23.2845 86.0011 24.4116 87.1275 26.1773C87.2771 26.4118 87.4145 26.6457 87.5389 26.876C87.5768 26.617 87.6256 26.3501 87.6856 26.0786C88.1377 24.0335 89.0568 22.4978 89.7385 22.6485C90.4202 22.7992 90.6063 24.5792 90.1542 26.6243C90.0942 26.8959 90.0259 27.1584 89.9511 27.4093C90.161 27.2529 90.3842 27.0987 90.6187 26.9491C92.3844 25.8227 94.1202 25.3867 94.4957 25.9753C94.8712 26.5639 93.7441 27.9542 91.9784 29.0806C91.7439 29.2301 91.51 29.3675 91.2797 29.492C91.5387 29.5298 91.8056 29.5786 92.0772 29.6386C94.1222 30.0907 95.6579 31.0098 95.5073 31.6915C95.3566 32.3732 93.5765 32.5593 91.5315 32.1073C91.2599 32.0472 90.9973 31.979 90.7464 31.9041C90.9028 32.114 91.057 32.3373 91.2066 32.5717C92.3331 34.3375 92.7691 36.0733 92.1805 36.4488C91.5919 36.8243 90.2016 35.6972 89.0752 33.9314C88.9256 33.697 88.7882 33.463 88.6638 33.2328C88.6259 33.4918 88.5771 33.7586 88.5171 34.0302C88.065 36.0753 87.1459 37.611 86.4642 37.4603C85.7825 37.3096 85.5964 35.5296 86.0485 33.4845Z" fill="white"/>
<circle cx="88.1018" cy="30.0543" r="1.73816" transform="rotate(-167.535 88.1018 30.0543)" fill="#FFCE05"/>
<path d="M99.8174 36.5833C91.3374 49.5141 90.3236 56.6967 90.4014 73.5294" stroke="#5EA985" stroke-width="1.10842" stroke-linecap="round"/>
<path d="M96.6182 47.2945C94.6202 47.801 92.719 49.6124 92.719 49.6124C92.719 49.6124 95.2536 50.2993 97.2515 49.7928C99.2495 49.2863 101.151 47.4749 101.151 47.4749C101.151 47.4749 98.6161 46.788 96.6182 47.2945Z" fill="#5EA985"/>
<path d="M89.6918 46.4761C90.701 48.2733 92.9449 49.6374 92.9449 49.6374C92.9449 49.6374 92.9483 47.0114 91.9391 45.2142C90.9299 43.417 88.686 42.0529 88.686 42.0529C88.686 42.0529 88.6827 44.6789 89.6918 46.4761Z" fill="#5EA985"/>
<path d="M94.8782 54.0484C92.92 54.6915 91.1481 56.6296 91.1481 56.6296C91.1481 56.6296 93.724 57.1401 95.6823 56.4971C97.6406 55.8541 99.4124 53.916 99.4124 53.916C99.4124 53.916 96.8365 53.4054 94.8782 54.0484Z" fill="#5EA985"/>
<path d="M87.619 53.4971C88.6798 55.2643 90.9623 56.5628 90.9623 56.5628C90.9623 56.5628 90.8896 53.9379 89.8288 52.1707C88.768 50.4035 86.4855 49.1049 86.4855 49.1049C86.4855 49.1049 86.5582 51.7299 87.619 53.4971Z" fill="#5EA985"/>
<path fill-rule="evenodd" clip-rule="evenodd" d="M97.073 41.6019C97.107 41.3259 97.15 41.058 97.2007 40.8012C97.0065 40.9768 96.799 41.1515 96.5798 41.3227C94.929 42.6118 93.2425 43.2108 92.8128 42.6605C92.3831 42.1103 93.373 40.6192 95.0237 39.3301C95.2429 39.1589 95.4627 38.9999 95.6802 38.8541C95.4187 38.8411 95.1484 38.8179 94.8724 38.7839C92.7936 38.5282 91.1775 37.7592 91.2627 37.0662C91.348 36.3733 93.1023 36.0189 95.181 36.2746C95.4571 36.3086 95.725 36.3516 95.9818 36.4023C95.8062 36.2081 95.6314 36.0006 95.4603 35.7814C94.1712 34.1306 93.5722 32.4441 94.1225 32.0144C94.6727 31.5847 96.1638 32.5746 97.4529 34.2253C97.6241 34.4445 97.7831 34.6643 97.9288 34.8818C97.9419 34.6203 97.9651 34.35 97.9991 34.074C98.2548 31.9952 99.0238 30.3791 99.7167 30.4643C100.41 30.5496 100.764 32.3039 100.508 34.3826C100.474 34.6587 100.431 34.9266 100.381 35.1834C100.575 35.0078 100.782 34.8331 101.002 34.6619C102.652 33.3728 104.339 32.7738 104.769 33.3241C105.198 33.8743 104.208 35.3654 102.558 36.6545C102.338 36.8257 102.119 36.9847 101.901 37.1304C102.163 37.1435 102.433 37.1667 102.709 37.2007C104.788 37.4564 106.404 38.2254 106.319 38.9183C106.233 39.6113 104.479 39.9657 102.4 39.71C102.124 39.676 101.856 39.633 101.6 39.5823C101.775 39.7764 101.95 39.984 102.121 40.2032C103.41 41.8539 104.009 43.5405 103.459 43.9702C102.909 44.3999 101.418 43.41 100.128 41.7593C99.9573 41.5401 99.7983 41.3203 99.6525 41.1028C99.6395 41.3643 99.6163 41.6346 99.5823 41.9106C99.3266 43.9894 98.5576 45.6055 97.8646 45.5202C97.1717 45.435 96.8173 43.6807 97.073 41.6019Z" fill="white"/>
<circle cx="98.7908" cy="37.9923" r="1.73816" transform="rotate(-172.987 98.7908 37.9923)" fill="#FFCE05"/>
<path d="M37.0195 83.5729C36.9703 83.6967 36.8757 83.7961 36.7559 83.85C28.2784 87.6626 21.2525 95.7722 20.0249 99.305C19.9217 99.602 20.1536 99.8843 20.4624 99.8844C25.6154 99.8869 26.8503 99.9562 30.9427 101.879C31.262 102.029 31.3296 102.463 31.0711 102.706L27.085 106.455C26.7409 106.779 26.9895 107.406 27.4563 107.439C29.3368 107.573 31.6617 108.148 34.187 108.994C34.3588 109.052 34.4855 109.202 34.5189 109.383C38.4489 130.7 56.791 146.827 78.8249 146.827H91.7062C113.265 146.827 131.289 131.388 135.738 110.755C135.773 110.59 135.887 110.453 136.041 110.391C139.989 108.806 143.754 107.638 146.543 107.439C147.01 107.406 147.258 106.779 146.914 106.455L142.928 102.706C142.669 102.463 142.737 102.029 143.056 101.879C147.149 99.9562 148.384 99.8869 153.537 99.8844C153.845 99.8843 154.078 99.6051 153.975 99.308C152.563 95.2349 143.43 85.0657 133.252 82.4301C133.102 82.3913 132.978 82.2848 132.915 82.1406C125.895 66.0476 110.085 54.8274 91.7062 54.8274H78.8249C59.9059 54.8274 43.7087 66.7172 37.0195 83.5729Z" fill="#525252"/>
<path fill-rule="evenodd" clip-rule="evenodd" d="M133.535 82.5053C130.42 81.8323 127.264 81.6511 124.155 82.0034C106.71 82.0034 92.1453 98.713 86.5795 121.66C80.3758 98.6303 63.8055 82.8519 46.1548 82.8519C42.7307 82.8519 39.4175 83.2503 36.2687 84.0745C28.0105 87.9727 21.2289 95.8401 20.0249 99.305C19.9217 99.602 20.1536 99.8843 20.4624 99.8844C25.6154 99.8869 26.8503 99.9562 30.9427 101.879C31.262 102.029 31.3296 102.463 31.0711 102.706L27.085 106.455C26.7409 106.779 26.9895 107.406 27.4563 107.439C29.3368 107.573 31.6617 108.148 34.187 108.994C34.3588 109.052 34.4855 109.202 34.5189 109.383C37.2073 123.965 46.6397 136.119 59.3846 142.343C59.4486 142.374 59.5127 142.405 59.5769 142.436C65.4142 145.252 71.9393 146.827 78.8249 146.827L84.2682 146.827L89 146.827L91.7062 146.827C98.4278 146.827 104.806 145.327 110.536 142.635C123.185 136.695 132.676 124.955 135.738 110.755C135.773 110.59 135.887 110.453 136.041 110.391C139.989 108.806 143.754 107.638 146.543 107.439C147.01 107.406 147.258 106.779 146.914 106.455L142.928 102.706C142.669 102.463 142.737 102.029 143.056 101.879C147.149 99.9562 148.384 99.8869 153.537 99.8844C153.845 99.8843 154.078 99.6051 153.975 99.308C152.576 95.2727 143.598 85.2538 133.535 82.5053Z" fill="#F4F4F4"/>
<ellipse cx="56.5" cy="117.127" rx="5.5" ry="3.3" fill="#FFC7AF"/>
<ellipse cx="115.5" cy="117.127" rx="5.5" ry="3.3" fill="#FFC7AF"/>
<circle r="6.5" transform="matrix(-1 0 0 1 61.5 106.327)" fill="#282828"/>
<circle r="2.25" transform="matrix(-1 0 0 1 59.25 105.077)" fill="white"/>
<circle r="1.5" transform="matrix(-1 0 0 1 62.5 108.327)" fill="white"/>
<circle r="6.5" transform="matrix(-1 0 0 1 110.5 106.327)" fill="#282828"/>
<circle r="2.25" transform="matrix(-1 0 0 1 108.25 105.077)" fill="white"/>
<circle r="1.5" transform="matrix(-1 0 0 1 111.5 108.327)" fill="white"/>
<rect x="86.2637" y="119.395" width="1.93315" height="8.35123" rx="0.966577" fill="#282828"/>
<ellipse cx="87.1909" cy="117.149" rx="6.57272" ry="4.32117" fill="#282828"/>
<circle cx="83.8281" cy="115.263" r="1.0439" fill="white"/>
<path d="M80.5 124.827C83.9797 127.959 90.5203 127.959 94 124.827" stroke="#282828" stroke-width="1.93315" stroke-linecap="round"/>
<path d="M41.6592 76.3511C43.4917 77.0191 45.9267 76.4627 47.2854 76.0431C47.8456 75.8701 48.0754 75.2397 47.7579 74.7467C46.988 73.5513 45.4823 71.5583 43.6498 70.8903C41.8173 70.2223 39.3822 70.7788 38.0236 71.1983C37.4634 71.3713 37.2335 72.0018 37.551 72.4947C38.321 73.6902 39.8267 75.6831 41.6592 76.3511Z" fill="#5EA985"/>
<path d="M56.1861 75.0903C54.5286 76.1184 52.0312 76.0709 50.6155 75.9377C50.0318 75.8827 49.678 75.3125 49.8882 74.7651C50.3978 73.4376 51.4648 71.1791 53.1223 70.151C54.7798 69.1229 57.2771 69.1704 58.6928 69.3036C59.2766 69.3586 59.6303 69.9288 59.4202 70.4762C58.9105 71.8037 57.8436 74.0622 56.1861 75.0903Z" fill="#5EA985"/>
<path d="M123.513 72.313C125.516 74.0586 129.309 74.0876 131.037 73.9982C131.549 73.9717 131.926 73.5397 131.882 73.0284C131.734 71.304 131.186 67.5511 129.183 65.8055C127.18 64.0599 123.387 64.0309 121.659 64.1203C121.147 64.1468 120.77 64.5789 120.814 65.0901C120.962 66.8145 121.509 70.5674 123.513 72.313Z" fill="#5EA985"/>
<path d="M89.9579 116.052C88.3852 115.289 87.2202 113.39 86.6217 112.218C86.3564 111.699 86.6471 111.099 87.2193 110.986C88.5102 110.73 90.7224 110.469 92.2951 111.231C93.8677 111.994 95.0328 113.892 95.6313 115.064C95.8966 115.584 95.6059 116.183 95.0337 116.297C93.7427 116.553 91.5306 116.814 89.9579 116.052Z" fill="#5EA985"/>
<path d="M128.155 93.9784C125.742 95.0909 122.094 94.0533 120.46 93.4819C119.976 93.3125 119.736 92.792 119.921 92.3137C120.548 90.7004 122.128 87.2525 124.541 86.14C126.954 85.0275 130.602 86.0651 132.235 86.6364C132.72 86.8058 132.96 87.3263 132.774 87.8046C132.148 89.418 130.568 92.8659 128.155 93.9784Z" fill="#5EA985"/>
<path fill-rule="evenodd" clip-rule="evenodd" d="M45.9899 71.3004C46.0499 71.0288 46.1182 70.7662 46.193 70.5154C45.9831 70.6718 45.7599 70.826 45.5254 70.9756C43.7597 72.102 42.0238 72.538 41.6484 71.9494C41.2729 71.3608 42.3999 69.9706 44.1657 68.8441C44.4002 68.6946 44.6341 68.5572 44.8644 68.4327C44.6054 68.3949 44.3385 68.3461 44.0669 68.286C42.0219 67.834 40.4862 66.9149 40.6368 66.2332C40.7875 65.5515 42.5676 65.3653 44.6126 65.8174C44.8842 65.8774 45.1468 65.9457 45.3977 66.0206C45.2413 65.8106 45.087 65.5874 44.9375 65.353C43.811 63.5872 43.3751 61.8514 43.9636 61.4759C44.5522 61.1004 45.9425 62.2275 47.0689 63.9933C47.2185 64.2277 47.3559 64.4617 47.4803 64.692C47.5182 64.4329 47.567 64.166 47.627 63.8945C48.0791 61.8494 48.9982 60.3137 49.6799 60.4644C50.3616 60.6151 50.5477 62.3951 50.0956 64.4402C50.0356 64.7118 49.9673 64.9744 49.8925 65.2252C50.1024 65.0688 50.3256 64.9146 50.5601 64.765C52.3258 63.6386 54.0617 63.2026 54.4371 63.7912C54.8126 64.3798 53.6855 65.7701 51.9198 66.8965C51.6853 67.0461 51.4514 67.1834 51.2211 67.3079C51.4801 67.3457 51.747 67.3945 52.0186 67.4546C54.0637 67.9066 55.5994 68.8257 55.4487 69.5074C55.298 70.1891 53.5179 70.3753 51.4729 69.9232C51.2013 69.8631 50.9387 69.7949 50.6878 69.72C50.8442 69.93 50.9985 70.1532 51.148 70.3877C52.2745 72.1534 52.7105 73.8892 52.1219 74.2647C51.5333 74.6402 50.143 73.5131 49.0166 71.7474C48.867 71.5129 48.7296 71.279 48.6052 71.0487C48.5673 71.3077 48.5185 71.5746 48.4585 71.8461C48.0064 73.8912 47.0873 75.4269 46.4056 75.2762C45.7239 75.1255 45.5378 73.3455 45.9899 71.3004Z" fill="white"/>
<circle cx="48.0432" cy="67.8703" r="1.73816" transform="rotate(-167.535 48.0432 67.8703)" fill="#FFCE05"/>
</svg>
