<svg width="173" height="184" viewBox="0 0 173 184" fill="none" xmlns="http://www.w3.org/2000/svg">
<path d="M162.368 30.0737L93.1677 1.32085C91.0598 0.44885 88.8001 0 86.518 0C84.2359 0 81.9762 0.44885 79.8683 1.32085L10.6683 30.0737C4.21687 32.7333 0 39.023 0 45.9955C0 117.338 41.2677 166.649 79.8323 182.679C84.0852 184.44 88.8788 184.44 93.1317 182.679C124.019 169.848 173 125.533 173 45.9955C173 39.023 168.783 32.7333 162.368 30.0737Z" fill="#01579B"/>
<path d="M84.7968 22.0612C84.7653 19.866 85.9275 18.0482 87.3926 18.0009C88.8578 17.9537 90.0712 19.6949 90.1027 21.8901L90.1475 25.0053L90.8522 22.1045C91.3534 20.0412 92.8761 18.9774 94.2533 19.7284C95.6304 20.4793 96.3405 22.7607 95.8392 24.824L93.4191 34.7862C92.9178 36.8495 91.3951 37.9133 90.0179 37.1623C89.577 36.9219 89.2045 36.5246 88.9182 36.0278C88.5464 36.3466 88.1176 36.5347 87.6591 36.5495C87.2835 36.5616 86.9244 36.4561 86.5975 36.2556C86.3529 37.3769 85.7793 38.3244 84.9821 38.7592C83.6049 39.5101 82.0822 38.4463 81.5809 36.383L79.1608 26.4208C78.6595 24.3575 79.3696 22.0761 80.7467 21.3252C82.1239 20.5742 83.6466 21.638 84.1478 23.7013L84.8626 26.6437L84.7968 22.0612Z" fill="#FAFAFA"/>
<path d="M34 101C34 130.271 57.7289 154 87 154V154C116.271 154 140 130.271 140 101V87H34V101Z" fill="#795548"/>
<g style="mix-blend-mode:multiply">
<path fill-rule="evenodd" clip-rule="evenodd" d="M80.5607 134.126C80.5607 134.657 80.4205 135.182 80.1482 135.672C79.8758 136.163 79.4765 136.608 78.9732 136.983C78.4699 137.359 77.8724 137.656 77.2149 137.859C76.5573 138.062 75.8525 138.167 75.1407 138.167C74.4289 138.167 73.7242 138.062 73.0666 137.859C72.409 137.656 71.8115 137.359 71.3082 136.983C70.8049 136.608 70.4057 136.163 70.1333 135.672C69.8609 135.182 69.7207 134.657 69.7207 134.126L75.1407 134.126H80.5607ZM91.4008 134.134C91.3994 134.662 91.2592 135.185 90.9882 135.672C90.7158 136.163 90.3166 136.608 89.8133 136.983C89.31 137.359 88.7125 137.656 88.0549 137.859C87.3973 138.062 86.6925 138.167 85.9808 138.167C85.269 138.167 84.5642 138.062 83.9066 137.859C83.249 137.656 82.6515 137.359 82.1483 136.983C81.645 136.608 81.2457 136.163 80.9733 135.672C80.701 135.182 80.5608 134.657 80.5608 134.126L85.9808 134.126L91.4008 134.126L91.4008 134.126H96.8208H102.241C102.241 134.657 102.101 135.182 101.828 135.672C101.556 136.163 101.157 136.608 100.653 136.983C100.15 137.359 99.5525 137.656 98.8949 137.859C98.2373 138.062 97.5325 138.167 96.8208 138.167C96.109 138.167 95.4042 138.062 94.7466 137.859C94.089 137.656 93.4915 137.359 92.9883 136.983C92.485 136.608 92.0857 136.163 91.8133 135.672C91.5423 135.185 91.4022 134.662 91.4008 134.134Z" fill="#4B2807" fill-opacity="0.5"/>
</g>
<g style="mix-blend-mode:multiply">
<path fill-rule="evenodd" clip-rule="evenodd" d="M80.5607 125.236C80.5607 125.749 80.4205 126.257 80.1482 126.731C79.8758 127.205 79.4765 127.635 78.9732 127.998C78.4699 128.361 77.8724 128.648 77.2149 128.845C76.5573 129.041 75.8525 129.142 75.1407 129.142C74.4289 129.142 73.7242 129.041 73.0666 128.845C72.409 128.648 71.8115 128.361 71.3082 127.998C70.8049 127.635 70.4057 127.205 70.1333 126.731C69.8609 126.257 69.7207 125.749 69.7207 125.236L75.1407 125.236H80.5607ZM91.4008 125.244C91.3994 125.754 91.2592 126.259 90.9882 126.731C90.7158 127.205 90.3166 127.635 89.8133 127.998C89.31 128.361 88.7125 128.648 88.0549 128.845C87.3973 129.041 86.6925 129.142 85.9808 129.142C85.269 129.142 84.5642 129.041 83.9066 128.845C83.249 128.648 82.6515 128.361 82.1483 127.998C81.645 127.635 81.2457 127.205 80.9733 126.731C80.701 126.257 80.5608 125.749 80.5608 125.236L85.9808 125.236L91.4008 125.236L91.4008 125.236H96.8208H102.241C102.241 125.749 102.101 126.257 101.828 126.731C101.556 127.205 101.157 127.635 100.653 127.998C100.15 128.361 99.5525 128.648 98.8949 128.845C98.2373 129.041 97.5325 129.142 96.8208 129.142C96.109 129.142 95.4042 129.041 94.7466 128.845C94.089 128.648 93.4915 128.361 92.9883 127.998C92.485 127.635 92.0857 127.205 91.8133 126.731C91.5423 126.259 91.4022 125.754 91.4008 125.244Z" fill="#4B2807" fill-opacity="0.5"/>
</g>
<g style="mix-blend-mode:multiply">
<path fill-rule="evenodd" clip-rule="evenodd" d="M79.8381 143.016V143.016L86.5228 143.016H93.2075C93.2075 144.338 92.5032 145.606 91.2496 146.54C89.9959 147.475 88.2957 148 86.5228 148C84.7499 148 83.0496 147.475 81.796 146.54C80.5443 145.607 79.8402 144.342 79.8381 143.022C79.8371 143.675 79.6642 144.321 79.3293 144.923C78.9933 145.528 78.5009 146.077 77.8802 146.54C77.2595 147.003 76.5226 147.37 75.7115 147.621C74.9005 147.871 74.0313 148 73.1534 148C72.2756 148 71.4063 147.871 70.5953 147.621C69.7843 147.37 69.0474 147.003 68.4266 146.54C67.8059 146.077 67.3135 145.528 66.9776 144.923C66.6417 144.319 66.4687 143.671 66.4688 143.016L73.1534 143.016H79.8381ZM106.068 144.923C106.404 144.319 106.577 143.671 106.577 143.016H99.8922L93.2075 143.016C93.2075 143.671 93.3804 144.319 93.7163 144.923C94.0523 145.528 94.5447 146.077 95.1654 146.54C95.7861 147.003 96.523 147.37 97.334 147.621C98.1451 147.871 99.0143 148 99.8922 148C100.77 148 101.639 147.871 102.45 147.621C103.261 147.37 103.998 147.003 104.619 146.54C105.24 146.077 105.732 145.528 106.068 144.923Z" fill="#4B2807" fill-opacity="0.5"/>
</g>
<path fill-rule="evenodd" clip-rule="evenodd" d="M50.1519 87H34V101C34 121.914 46.1141 139.999 63.7084 148.621C68.9817 141.865 72.1982 132.872 72.1982 123C72.1982 106.28 62.9714 92.0819 50.1519 87ZM122.893 87H140V101C140 122.188 127.567 140.471 109.6 148.954C104.17 142.162 100.847 133.035 100.847 123C100.847 106.28 110.074 92.0819 122.893 87Z" fill="#4E342E"/>
<path d="M86.5 31.9417C55.8371 31.9417 30.8791 54.8783 30.0227 83.477C30.0076 83.7035 30 83.9319 30 84.1619V109.332C30 115.306 35.1574 120.149 41.5194 120.149C47.8814 120.149 53.0388 115.306 53.0388 109.332V99.8533L53.0388 109.847C53.0388 115.536 57.9507 120.149 64.0097 120.149C70.0688 120.149 74.9806 115.536 74.9806 109.847L74.9806 99.8533V109.332C74.9806 115.306 80.138 120.149 86.5 120.149C92.862 120.149 98.0194 115.306 98.0194 109.332L98.0194 109.847C98.0194 115.536 102.931 120.149 108.99 120.149C115.049 120.149 119.961 115.536 119.961 109.847V109.354C119.974 115.318 125.126 120.149 131.481 120.149C137.843 120.149 143 115.306 143 109.332V84.1619C143 83.9319 142.992 83.7035 142.977 83.477C142.121 54.8783 117.163 31.9417 86.5 31.9417Z" fill="#DBDBDB"/>
<path fill-rule="evenodd" clip-rule="evenodd" d="M86.5 27.1619C55.2959 27.1619 30 52.4578 30 83.6619V86.5194V95.0735V103.85C30 110.212 35.1574 115.369 41.5194 115.369C47.8814 115.369 53.0388 110.212 53.0388 103.85V95.0735L53.0389 104.398C53.0389 110.457 57.9507 115.369 64.0097 115.369C70.0688 115.369 74.9806 110.457 74.9806 104.398L74.9806 95.0735V103.85C74.9806 110.212 80.138 115.369 86.5 115.369C92.852 115.369 98.0033 110.228 98.0194 103.88V104.398C98.0194 110.457 102.931 115.369 108.99 115.369C115.049 115.369 119.961 110.457 119.961 104.398L119.961 103.85C119.961 110.212 125.119 115.369 131.481 115.369C137.843 115.369 143 110.212 143 103.85V95.0735V86.5194V83.6619C143 52.4578 117.704 27.1619 86.5 27.1619Z" fill="#FAFAFA"/>
<path d="M89.0418 113.97C88.6106 114.16 88.1214 114.26 87.6234 114.26H86.3304C85.8325 114.26 85.3432 114.16 84.912 113.97L74.3126 109.312C72.3264 108.439 69.8676 109.63 70.0127 111.372C70.4083 116.125 70.4004 119.873 70.0061 124.627C69.8617 126.368 72.3178 127.555 74.3019 126.683L85.3262 121.838C85.7574 121.648 86.2466 121.549 86.7446 121.549H87.2092C87.7072 121.549 88.1964 121.648 88.6276 121.838L99.7058 126.707C101.679 127.574 104.125 126.404 103.995 124.672C103.637 119.884 103.62 116.122 103.981 111.337C104.112 109.601 101.662 108.424 99.6836 109.293L89.0418 113.97Z" fill="#FFCEB9"/>
<path d="M73.025 87.3895C71.0017 85.6857 71.1598 82.5223 73.3428 81.0286L85.6109 72.6346C87.0366 71.6592 88.9273 71.7091 90.2995 72.7584L101.258 81.1384C103.218 82.6376 103.367 85.5371 101.57 87.2286L90.5936 97.5589C89.1151 98.9505 86.8287 99.0136 85.2756 97.7058L73.025 87.3895Z" fill="#FFD500"/>
<ellipse cx="81.5" cy="85.3636" rx="1.5" ry="1.36364" fill="#512E0C"/>
<ellipse cx="93.2412" cy="85.3636" rx="1.5" ry="1.36364" fill="#512E0C"/>
<circle cx="61" cy="70" r="12" fill="#FFD500"/>
<circle cx="61" cy="70" r="8" fill="#323232"/>
<circle cx="64" cy="67.6667" r="3" fill="white"/>
<circle cx="59" cy="73.3333" r="2" fill="white"/>
<circle cx="113" cy="70" r="12" fill="#FFD500"/>
<circle cx="113" cy="70" r="8" fill="#323232"/>
<circle cx="116" cy="67.6667" r="3" fill="white"/>
<circle cx="111" cy="73.3333" r="2" fill="white"/>
<ellipse cx="53" cy="87.9092" rx="6" ry="4" fill="#FFCEB9"/>
<ellipse cx="121" cy="87.9092" rx="6" ry="4" fill="#FFCEB9"/>
<path d="M124.577 45.9395L125.646 41.5529C125.964 40.2468 124.916 39 123.5 39C122.084 39 121.036 40.2468 121.354 41.5529L122.423 45.9395L122.945 48.1802L124.219 48.1019L124.577 45.9395Z" fill="#FFE591"/>
<path d="M125.669 49.0119L130.303 50.0237C131.683 50.325 133 49.333 133 47.9926C133 46.6522 131.683 45.6602 130.303 45.9614L125.669 46.9732L123.412 47.4123V48.4218L125.669 49.0119Z" fill="#FFE591"/>
<path d="M121.331 49.0119L116.697 50.0238C115.317 50.3251 114 49.333 114 47.9926C114 46.6522 115.317 45.6603 116.697 45.9615L121.331 46.9733L122.849 47.3204L123.138 48.6205L121.331 49.0119Z" fill="#FFE591"/>
<path d="M122.199 45.0197L120.207 42.0028C119.456 40.8662 117.784 40.686 116.782 41.6338C115.781 42.5816 115.972 44.1647 117.172 44.8752L120.359 46.7612L122.614 48.1802L123.5 47.3043L122.199 45.0197Z" fill="#FFE591"/>
<path d="M126.641 46.7612L129.828 44.8752C131.028 44.1647 131.219 42.5817 130.218 41.6339C129.216 40.6861 127.544 40.8663 126.793 42.0029L124.801 45.0197L123.139 47.5462L123.979 48.6571L126.641 46.7612Z" fill="#FFE591"/>
<path d="M126.641 49.2241L129.828 51.11C131.028 51.8205 131.219 53.4036 130.218 54.3514C129.216 55.2992 127.544 55.119 126.793 53.9824L124.801 50.9655L123.237 48.9596L124.51 47.8474L126.641 49.2241Z" fill="#FFE591"/>
<path d="M122.199 50.9656L120.207 53.9824C119.456 55.119 117.784 55.2992 116.782 54.3514C115.781 53.4037 115.972 51.8206 117.172 51.1101L120.359 49.2241L123.138 47.6175L123.851 48.1837L122.199 50.9656Z" fill="#FFE591"/>
<path d="M124.72 50.1711L125.772 54.4878C126.085 55.773 125.054 57 123.66 57C122.267 57 121.236 55.773 121.549 54.4878L122.601 50.1711L123.005 47.8321L124.031 47.726L124.72 50.1711Z" fill="#FFE591"/>
<path d="M123.5 50.1104C124.736 50.1104 125.737 49.1624 125.737 47.9931C125.737 46.8237 124.736 45.8757 123.5 45.8757C122.265 45.8757 121.264 46.8237 121.264 47.9931C121.264 49.1624 122.265 50.1104 123.5 50.1104Z" fill="#FFD500"/>
<g style="mix-blend-mode:multiply">
<path fill-rule="evenodd" clip-rule="evenodd" d="M122.934 50.042C123.114 50.0866 123.304 50.1104 123.5 50.1104C124.735 50.1104 125.737 49.1624 125.737 47.9931C125.737 46.8237 124.735 45.8757 123.5 45.8757C123.371 45.8757 123.245 45.886 123.123 45.9057C124.084 46.1431 124.793 46.9704 124.793 47.9546C124.793 49.0023 123.989 49.8723 122.934 50.042Z" fill="#FED402" fill-opacity="0.5"/>
</g>
<path d="M109.349 30.2527L110.698 24.4039C111.1 22.6624 109.777 21 107.99 21C106.203 21 104.88 22.6624 105.282 24.4039L106.631 30.2527L107.29 33.2403L108.898 33.1358L109.349 30.2527Z" fill="#FFE591"/>
<path d="M110.728 34.3492L116.577 35.6982C118.318 36.1 119.98 34.7773 119.98 32.9901C119.98 31.2029 118.318 29.8803 116.577 30.2819L110.728 31.631L107.879 32.2164V33.5623L110.728 34.3492Z" fill="#FFE591"/>
<path d="M105.253 34.3492L99.4039 35.6983C97.6624 36.1001 96 34.7774 96 32.9902C96 31.203 97.6624 29.8804 99.4039 30.282L105.253 31.6311L107.168 32.0939L107.534 33.8274L105.253 34.3492Z" fill="#FFE591"/>
<path d="M106.348 29.0262L103.834 25.0038C102.886 23.4883 100.776 23.248 99.5118 24.5117C98.2481 25.7755 98.4884 27.8862 100.004 28.8336L104.026 31.3483L106.872 33.2403L107.99 32.0724L106.348 29.0262Z" fill="#FFE591"/>
<path d="M111.954 31.3483L115.977 28.8337C117.492 27.8863 117.732 25.7756 116.469 24.5118C115.205 23.2481 113.094 23.4884 112.147 25.0038L109.632 29.0263L107.534 32.3949L108.595 33.8762L111.954 31.3483Z" fill="#FFE591"/>
<path d="M111.954 34.6321L115.977 37.1467C117.492 38.094 117.732 40.2048 116.469 41.4685C115.205 42.7322 113.094 42.4919 112.147 40.9765L109.632 36.954L107.658 34.2794L109.265 32.7966L111.954 34.6321Z" fill="#FFE591"/>
<path d="M106.348 36.9541L103.834 40.9766C102.886 42.492 100.776 42.7323 99.5118 41.4686C98.2481 40.2049 98.4884 38.0941 100.004 37.1468L104.026 34.6322L107.534 32.4899L108.434 33.2449L106.348 36.9541Z" fill="#FFE591"/>
<path d="M109.53 35.8949L110.858 41.6504C111.253 43.364 109.951 45 108.193 45C106.434 45 105.132 43.364 105.528 41.6504L106.855 35.8949L107.366 32.7761L108.66 32.6347L109.53 35.8949Z" fill="#FFE591"/>
<path d="M107.99 35.8137C109.549 35.8137 110.813 34.5498 110.813 32.9906C110.813 31.4314 109.549 30.1675 107.99 30.1675C106.431 30.1675 105.167 31.4314 105.167 32.9906C105.167 34.5498 106.431 35.8137 107.99 35.8137Z" fill="#FFD500"/>
<g style="mix-blend-mode:multiply">
<path fill-rule="evenodd" clip-rule="evenodd" d="M107.276 35.7225C107.505 35.782 107.744 35.8137 107.991 35.8137C109.55 35.8137 110.814 34.5498 110.814 32.9906C110.814 31.4314 109.55 30.1675 107.991 30.1675C107.829 30.1675 107.67 30.1812 107.515 30.2074C108.728 30.5239 109.623 31.6271 109.623 32.9393C109.623 34.3362 108.609 35.4962 107.276 35.7225Z" fill="#FED402" fill-opacity="0.5"/>
</g>
</svg>
