<svg width="29" height="29" viewBox="0 0 29 29" fill="none" xmlns="http://www.w3.org/2000/svg">
<path d="M18.7289 16.9167H17.7744L17.436 16.5904C18.886 14.8988 19.6352 12.5909 19.2244 10.1379C18.6564 6.77877 15.8531 4.09627 12.4698 3.68544C7.35853 3.05711 3.05686 7.35877 3.6852 12.47C4.09603 15.8534 6.77853 18.6567 10.1377 19.2246C12.5906 19.6354 14.8985 18.8863 16.5902 17.4363L16.9164 17.7746V18.7292L22.0519 23.8646C22.5473 24.36 23.3569 24.36 23.8523 23.8646C24.3477 23.3692 24.3477 22.5596 23.8523 22.0642L18.7289 16.9167ZM11.4789 16.9167C8.4702 16.9167 6.04145 14.4879 6.04145 11.4792C6.04145 8.47044 8.4702 6.04169 11.4789 6.04169C14.4877 6.04169 16.9164 8.47044 16.9164 11.4792C16.9164 14.4879 14.4877 16.9167 11.4789 16.9167Z" fill="#323232"/>
</svg>
