<svg width="173" height="184" viewBox="0 0 173 184" fill="none" xmlns="http://www.w3.org/2000/svg">
<path d="M162.368 30.0737L93.1677 1.32085C91.0598 0.44885 88.8001 0 86.518 0C84.2359 0 81.9762 0.44885 79.8683 1.32085L10.6683 30.0737C4.21687 32.7333 0 39.023 0 45.9955C0 117.338 41.2677 166.649 79.8323 182.679C84.0852 184.44 88.8788 184.44 93.1317 182.679C124.019 169.848 173 125.533 173 45.9955C173 39.023 168.783 32.7333 162.368 30.0737Z" fill="#B71C1C"/>
<path d="M114.566 145.901C108.64 146.307 103.134 144.158 99.1591 140.406C95.7513 144.664 90.6005 147.545 84.6752 147.951C77.3259 148.455 70.6207 145.027 66.6841 139.487C63.7154 141.62 60.1208 142.981 56.1844 143.251C45.3917 143.992 35.9879 136.253 34.7022 125.797C27.2299 123.287 21.6328 116.567 21.0497 108.326C20.5165 100.79 24.3154 93.9409 30.3586 90.1438C26.1436 86.7884 23.3015 81.7838 22.8951 76.04C22.1189 65.0689 30.5227 55.5556 41.6656 54.7913C41.7915 54.7826 41.9172 54.7751 42.0428 54.7688C41.4758 43.9524 49.8164 34.6406 60.8357 33.8847C63.6961 33.6885 66.4589 34.0879 68.9989 34.9757C72.1025 28.9054 78.2846 24.5555 85.6698 24.049C94.6351 23.434 102.642 28.6701 105.833 36.4542C107.948 35.52 110.262 34.9304 112.709 34.7625C123.852 33.9982 133.514 42.2725 134.29 53.2435C134.424 55.1337 134.285 56.9806 133.907 58.747C142.685 60.4171 149.582 67.7192 150.232 76.9168C150.556 81.4885 149.285 85.807 146.887 89.3449C149.76 92.5211 151.627 96.6245 151.95 101.196C152.727 112.167 144.323 121.681 133.18 122.445C133.139 122.448 133.098 122.45 133.057 122.453C133.189 123.172 133.283 123.906 133.336 124.652C134.112 135.623 125.708 145.137 114.566 145.901Z" fill="url(#paint0_linear)"/>
<path d="M115.28 145.901C109.309 146.307 103.761 144.158 99.7557 140.406C96.3219 144.664 91.1318 147.545 85.1613 147.951C77.7559 148.455 70.9994 145.027 67.0329 139.487C64.0414 141.62 60.4194 142.981 56.453 143.251C45.5779 143.992 36.1023 136.253 34.8068 125.797C27.2775 123.287 21.6377 116.567 21.0501 108.326C20.5128 100.79 24.3407 93.9409 30.43 90.1438C26.1829 86.7884 23.3191 81.7838 22.9096 76.04C22.1274 65.0689 30.5954 55.5556 41.8233 54.7913C41.9502 54.7826 42.0769 54.7751 42.2034 54.7688C41.6321 43.9524 50.0364 34.6406 61.1398 33.8847C64.022 33.6885 66.8059 34.0879 69.3653 34.9757C72.4926 28.9054 78.7218 24.5555 86.1635 24.049C95.1972 23.434 103.265 28.6701 106.481 36.4542C108.611 35.52 110.944 34.9304 113.409 34.7625C124.637 33.9982 134.373 42.2725 135.155 53.2435C135.29 55.1337 135.15 56.9806 134.769 58.747C143.614 60.4171 150.563 67.7192 151.219 76.9168C151.545 81.4885 150.265 85.807 147.848 89.3449C150.743 92.5211 152.624 96.6245 152.95 101.196C153.732 112.167 145.264 121.681 134.036 122.445C133.995 122.448 133.953 122.45 133.912 122.453C134.046 123.172 134.14 123.906 134.194 124.652C134.976 135.623 126.508 145.137 115.28 145.901Z" fill="#764C24"/>
<path d="M135 95.4201C135 114.632 114.096 133 87 133C59.9045 133 39 116.41 39 97.1975C39 89.9602 41.9665 81.7617 47.1129 74.3532C43.5324 72.3809 41.1215 68.681 41.1215 64.442C41.1215 58.1314 46.4644 53.0157 53.0552 53.0157C57.5253 53.0157 61.4213 55.3689 63.4658 58.852C70.3651 54.637 78.3684 52 87 52C95.3918 52 103.19 54.322 109.957 58.0985C112.097 55.0338 115.744 53.0157 119.884 53.0157C126.475 53.0157 131.818 58.1314 131.818 64.442C131.818 68.1349 129.988 71.4186 127.149 73.5074C132.134 80.5082 135 88.3066 135 95.4201Z" fill="#FFCF63"/>
<circle cx="52.8952" cy="64.7895" r="7.30827" fill="#FFE7B1"/>
<circle cx="121.106" cy="64.7895" r="7.30827" fill="#FFE7B1"/>
<path fill-rule="evenodd" clip-rule="evenodd" d="M54.4144 123.448C54.1423 122.161 54 120.843 54 119.5C54 105.417 69.6553 94 86.5 94C103.345 94 119 105.417 119 119.5C119 120.808 118.865 122.093 118.607 123.347C110.246 129.242 99.2561 133 87 133C74.2594 133 62.8877 129.332 54.4144 123.448Z" fill="#FFE7B1"/>
<g style="mix-blend-mode:multiply" opacity="0.5">
<path fill-rule="evenodd" clip-rule="evenodd" d="M64.4983 58.3844C63.1533 62.8993 62.2367 68.9309 66.0001 71C73.2758 75 80.9214 66.1193 80.9214 66.1193C80.9214 66.1193 79.5001 76.0002 88.0001 76C96.5001 75.9999 95.3952 66.1193 95.3952 66.1193C95.3952 66.1193 100.263 74.918 107.5 71.9999C112.173 70.1158 110.603 62.7435 108.904 57.7558C108.894 57.7696 108.884 57.7835 108.874 57.7974C102.427 54.2074 94.9963 52 87.0002 52C78.7756 52 71.1496 54.5068 64.5756 58.5136C64.5501 58.4704 64.5243 58.4273 64.4983 58.3844Z" fill="#FFCF63"/>
</g>
<path d="M87.1343 95.4119V101.444C87.1343 103.415 88.7314 105.012 90.7014 105.012H91.1998C92.8946 105.012 94.2686 103.638 94.2686 101.943V101.943" stroke="#6B4A32" stroke-width="2" stroke-linecap="round" stroke-linejoin="round"/>
<path d="M87.1342 95.4119V101.444C87.1342 103.415 85.5372 105.012 83.5671 105.012H83.0688C81.3739 105.012 80 103.638 80 101.943V101.943" stroke="#6B4A32" stroke-width="2" stroke-linecap="round" stroke-linejoin="round"/>
<path d="M94.1177 95.9516C94.1177 98.199 90.9573 100.021 87.0588 100.021C83.1603 100.021 80 98.199 80 95.9516C80 93.7042 83.1603 91 87.0588 91C90.9573 91 94.1177 93.7042 94.1177 95.9516Z" fill="#6B4A32"/>
<ellipse cx="83.2627" cy="94.1762" rx="1.02344" ry="0.983047" fill="white"/>
<circle cx="62" cy="90" r="8" fill="#6B4A32"/>
<circle cx="64.7012" cy="88.4657" r="2.76923" transform="rotate(-150 64.7012 88.4657)" fill="white"/>
<circle cx="60.9786" cy="93.3585" r="1.84615" transform="rotate(-150 60.9786 93.3585)" fill="white"/>
<circle cx="113" cy="90" r="8" fill="#6B4A32"/>
<circle cx="115.701" cy="88.4657" r="2.76923" transform="rotate(-150 115.701 88.4657)" fill="white"/>
<circle cx="111.979" cy="93.3585" r="1.84615" transform="rotate(-150 111.979 93.3585)" fill="white"/>
<circle cx="53.5" cy="106.5" r="7.5" fill="#FEB1AA"/>
<circle cx="120.5" cy="106.5" r="7.5" fill="#FEB1AA"/>
<circle cx="66.25" cy="104.25" r="1.25" fill="#6B4A32" fill-opacity="0.7"/>
<circle cx="70.25" cy="105.25" r="1.25" fill="#6B4A32" fill-opacity="0.7"/>
<circle cx="67.25" cy="108.25" r="1.25" fill="#6B4A32" fill-opacity="0.7"/>
<circle r="1.25" transform="matrix(-1 0 0 1 107.75 104.25)" fill="#6B4A32" fill-opacity="0.7"/>
<circle r="1.25" transform="matrix(-1 0 0 1 103.75 105.25)" fill="#6B4A32" fill-opacity="0.7"/>
<circle r="1.25" transform="matrix(-1 0 0 1 106.75 108.25)" fill="#6B4A32" fill-opacity="0.7"/>
<path fill-rule="evenodd" clip-rule="evenodd" d="M38.0913 29.3467C37.5188 28.9719 36.886 28.884 36.3554 29.1054C35.8248 29.3268 35.4423 29.8383 35.3058 30.5089C35.1805 31.1249 35.2642 31.8303 35.5416 32.4951C35.819 33.1599 36.2614 33.7157 36.7874 34.0599C37.36 34.4347 37.9927 34.5227 38.5234 34.3013C39.054 34.0799 39.4365 33.5683 39.573 32.8977C39.6983 32.2817 39.6146 31.5763 39.3372 30.9115C39.0598 30.2467 38.6174 29.6909 38.0913 29.3467ZM40.6428 35.7406C39.1857 34.975 37.6922 34.8417 36.4372 35.3653C35.1823 35.8889 34.2263 37.0442 33.7456 38.6183C33.3134 40.0332 33.3464 41.5754 33.8339 42.7436C34.0706 43.3111 34.4245 43.671 34.8856 43.8133C35.3407 43.9538 35.8262 43.8629 36.3236 43.6554C36.8529 43.4345 37.3956 43.0815 37.9288 42.7347C38.3947 42.4316 38.8349 42.1453 39.2022 41.9921C39.5192 41.8598 40.0009 41.7562 40.5107 41.6467C41.7023 41.3906 43.0528 41.1003 43.5257 40.1961C43.7505 39.7663 43.7461 39.2647 43.5127 38.7052C43.0253 37.537 41.9524 36.4287 40.6428 35.7406ZM32.0457 30.9036C32.5763 30.6822 33.209 30.7702 33.7816 31.145C34.3075 31.4892 34.75 32.045 35.0274 32.7098C35.3048 33.3746 35.3885 34.08 35.2632 34.696C35.1268 35.3666 34.7442 35.8782 34.2136 36.0996C33.6829 36.321 33.0503 36.233 32.4777 35.8582C31.9516 35.514 31.5092 34.9582 31.2318 34.2934C30.9544 33.6286 30.8707 32.9232 30.996 32.3072C31.1325 31.6366 31.515 31.125 32.0457 30.9036ZM43.3619 31.9357C43.0161 31.5091 42.5624 31.2837 42.0844 31.3009C41.6997 31.3148 41.3331 31.4926 41.0522 31.8016C40.665 32.2275 40.4657 32.8564 40.5055 33.5272C40.538 34.0753 40.7281 34.5896 41.0409 34.9755C41.3867 35.402 41.8404 35.6274 42.3185 35.6102C42.4839 35.6043 42.6459 35.568 42.7993 35.504C43.0026 35.4192 43.1906 35.2857 43.3507 35.1095C43.7379 34.6836 43.9372 34.0547 43.8974 33.384L43.8974 33.3839C43.8649 32.8359 43.6747 32.3215 43.3619 31.9357ZM30.6581 36.1384C31.2331 36.1628 31.8203 36.4636 32.269 36.9636C32.6357 37.3723 32.8675 37.8693 32.9218 38.363C32.9817 38.9088 32.8228 39.3898 32.4742 39.7176C32.3536 39.8309 32.2138 39.9206 32.0605 39.9846C31.8572 40.0694 31.6301 40.1091 31.3922 40.099C30.8172 40.0746 30.23 39.7738 29.7812 39.2737L29.7812 39.2737C29.4145 38.865 29.1827 38.3681 29.1285 37.8743C29.0686 37.3286 29.2275 36.8475 29.576 36.5198C29.8565 36.2562 30.2407 36.1207 30.6581 36.1384Z" fill="#E57373" fill-opacity="0.74"/>
<path d="M106.702 49.9454C106.716 49.8032 106.722 49.659 106.722 49.5131C106.722 47.0206 104.715 45 102.24 45C99.7639 45 97.7569 47.0206 97.7569 49.5131C97.7569 49.7551 97.7758 49.9926 97.8122 50.2243C96.3187 49.3207 94.3855 49.3042 92.8863 50.3367C90.8583 51.7334 90.3926 54.5208 91.8461 56.5626C92.621 57.6511 93.7849 58.3079 95.0101 58.4723C94.8857 58.609 94.7682 58.7545 94.6584 58.9087C93.2049 60.9504 93.6706 63.7379 95.6986 65.1346C97.7267 66.5313 100.549 66.0084 102.003 63.9666C102.081 63.8564 102.154 63.744 102.221 63.6298C102.289 63.744 102.361 63.8564 102.44 63.9666C103.893 66.0084 106.716 66.5313 108.744 65.1346C110.772 63.7379 111.238 60.9504 109.784 58.9087C109.655 58.7273 109.515 58.558 109.366 58.4009C110.442 58.1593 111.441 57.5322 112.131 56.5626C113.585 54.5208 113.119 51.7334 111.091 50.3367C109.766 49.4242 108.102 49.331 106.702 49.9454Z" fill="white"/>
<g style="mix-blend-mode:multiply">
<circle cx="102.493" cy="55.9469" r="3.38163" transform="rotate(24.6549 102.493 55.9469)" fill="#FFCE05" fill-opacity="0.6"/>
</g>
<defs>
<linearGradient id="paint0_linear" x1="86.5" y1="24" x2="86.5" y2="148" gradientUnits="userSpaceOnUse">
<stop stop-color="#764C24"/>
<stop offset="1" stop-color="#58391B"/>
</linearGradient>
</defs>
</svg>
