<svg width="173" height="184" viewBox="0 0 173 184" fill="none" xmlns="http://www.w3.org/2000/svg">
<path d="M162.368 30.0737L93.1677 1.32085C91.0598 0.44885 88.8001 0 86.518 0C84.2359 0 81.9762 0.44885 79.8683 1.32085L10.6683 30.0737C4.21687 32.7333 0 39.023 0 45.9955C0 117.338 41.2677 166.649 79.8323 182.679C84.0852 184.44 88.8788 184.44 93.1317 182.679C124.019 169.848 173 125.533 173 45.9955C173 39.023 168.783 32.7333 162.368 30.0737Z" fill="#1B5E20"/>
<path fill-rule="evenodd" clip-rule="evenodd" d="M128.094 71.3949C128.124 71.7556 128.314 72.0865 128.61 72.2944C137.899 78.8123 143.971 89.6035 143.971 101.813C143.971 121.714 127.838 137.848 107.936 137.848H66.0351C46.1335 137.848 30 121.714 30 101.813C30 90.0527 35.6334 79.6084 44.349 73.0312C44.6331 72.8167 44.8099 72.4867 44.8325 72.1314C46.0083 53.6483 61.3718 39.0211 80.1517 39.0211H92.8293C111.359 39.0211 126.563 53.2612 128.094 71.3949Z" fill="#D5DE72"/>
<g style="mix-blend-mode:multiply">
<path fill-rule="evenodd" clip-rule="evenodd" d="M91.2443 64.3763C100.58 64.3763 108.148 56.8083 108.148 47.4728C108.148 45.5922 107.841 43.7832 107.274 42.0934C102.863 40.1191 97.9741 39.0211 92.8289 39.0211H80.1514C78.9171 39.0211 77.6976 39.0843 76.4959 39.2076C75.1235 41.6513 74.3408 44.4707 74.3408 47.4728C74.3408 56.8083 81.9087 64.3763 91.2443 64.3763Z" fill="#D5DE72"/>
</g>
<g style="mix-blend-mode:multiply">
<path fill-rule="evenodd" clip-rule="evenodd" d="M46.2227 64.3105C48.4927 56.675 53.27 50.1187 59.5999 45.5962C63.3358 47.5286 65.8892 51.4285 65.8892 55.9247C65.8892 62.3429 60.6863 67.5458 54.2681 67.5458C51.1456 67.5458 48.3107 66.3143 46.2227 64.3105Z" fill="#D5DE72"/>
</g>
<g style="mix-blend-mode:multiply">
<path fill-rule="evenodd" clip-rule="evenodd" d="M121.85 54.1492C125.2 58.9378 127.394 64.5939 128.03 70.7132C122.867 70.6115 118.713 66.3943 118.713 61.2069C118.713 58.4067 119.923 55.8892 121.85 54.1492Z" fill="#D5DE72"/>
</g>
<path fill-rule="evenodd" clip-rule="evenodd" d="M143.515 96.0659C143.815 97.9374 143.971 99.857 143.971 101.813C143.971 121.715 127.838 137.848 107.936 137.848H66.035C46.1334 137.848 30 121.715 30 101.813C30 98.6611 30.4047 95.6036 31.1649 92.6898C34.7241 90.1316 38.8187 88.6751 43.1754 88.6751C50.1546 88.6751 56.4612 92.4127 60.9717 98.4298C67.3056 92.4127 76.1617 88.675 85.9623 88.675C95.4486 88.675 104.05 92.1768 110.336 97.8581C114.812 92.1768 120.937 88.675 127.693 88.675C133.706 88.675 139.219 91.4495 143.515 96.0659Z" fill="#FFF9BA"/>
<circle cx="45.817" cy="106.635" r="8.45172" fill="#FFCEB9"/>
<circle cx="127.165" cy="106.635" r="8.45172" fill="#FFCEB9"/>
<ellipse cx="61.3319" cy="79.5443" rx="7.06334" ry="8.82918" fill="#433D3C"/>
<ellipse cx="59.5657" cy="76.4541" rx="2.64875" ry="3.09021" fill="white"/>
<circle cx="63.5392" cy="80.8687" r="1.32438" fill="white"/>
<ellipse rx="7.06334" ry="8.82918" transform="matrix(-1 0 0 1 111.138 79.5443)" fill="#433D3C"/>
<ellipse rx="2.64875" ry="3.09021" transform="matrix(-1 0 0 1 112.904 76.4541)" fill="white"/>
<circle r="1.32438" transform="matrix(-1 0 0 1 108.931 80.8687)" fill="white"/>
<ellipse cx="75.2431" cy="100.749" rx="2.64116" ry="3.69763" transform="rotate(10 75.2431 100.749)" fill="#433D3C"/>
<ellipse cx="99.7294" cy="100.932" rx="2.64116" ry="3.69763" transform="rotate(-10 99.7294 100.932)" fill="#433D3C"/>
<path d="M116.283 137.143C100.073 122.942 103.88 125.122 80.6189 120.429" stroke="#5EA985" stroke-width="2.60879" stroke-linecap="round"/>
<path d="M102.117 130.659C101.804 127.803 99.6708 124.83 99.6708 124.83C99.6708 124.83 98.2333 128.195 98.5465 131.051C98.8598 133.906 100.993 136.88 100.993 136.88C100.993 136.88 102.43 133.514 102.117 130.659Z" fill="#5EA985"/>
<path d="M104.584 121.257C101.908 122.303 99.5923 125.136 99.5923 125.136C99.5923 125.136 103.216 125.648 105.892 124.602C108.567 123.556 110.883 120.723 110.883 120.723C110.883 120.723 107.259 120.211 104.584 121.257Z" fill="#5EA985"/>
<path d="M93.1314 126.953C92.622 124.126 90.2891 121.306 90.2891 121.306C90.2891 121.306 89.087 124.762 89.5963 127.59C90.1056 130.417 92.4386 133.237 92.4386 133.237C92.4386 133.237 93.6407 129.78 93.1314 126.953Z" fill="#5EA985"/>
<path d="M84.2814 124.237C83.2724 121.548 80.4708 119.193 80.4708 119.193C80.4708 119.193 79.9093 122.81 80.9183 125.499C81.9272 128.189 84.7288 130.544 84.7288 130.544C84.7288 130.544 85.2903 126.927 84.2814 124.237Z" fill="#5EA985"/>
<path fill-rule="evenodd" clip-rule="evenodd" d="M118.641 131.829C118.78 131.428 118.909 131.007 119.026 130.571C119.904 127.29 119.729 124.392 118.635 124.099C117.541 123.806 115.942 126.23 115.064 129.512C114.947 129.948 114.849 130.377 114.77 130.794C114.584 130.412 114.378 130.023 114.153 129.632C112.453 126.691 110.28 124.765 109.299 125.332C108.319 125.899 108.902 128.742 110.602 131.684C110.827 132.074 111.061 132.447 111.3 132.798C110.899 132.659 110.478 132.53 110.043 132.413C106.761 131.535 103.863 131.71 103.57 132.804C103.278 133.898 105.701 135.497 108.983 136.375C109.419 136.492 109.848 136.59 110.265 136.669C109.883 136.855 109.494 137.061 109.103 137.286C106.162 138.986 104.236 141.159 104.803 142.139C105.369 143.12 108.213 142.537 111.155 140.837C111.546 140.611 111.918 140.377 112.27 140.139C112.13 140.54 112.001 140.961 111.884 141.396C111.006 144.678 111.181 147.576 112.275 147.869C113.369 148.161 114.968 145.738 115.846 142.456C115.963 142.02 116.061 141.591 116.141 141.174C116.326 141.556 116.532 141.945 116.758 142.336C118.457 145.277 120.63 147.203 121.611 146.636C122.591 146.069 122.008 143.225 120.308 140.284C120.083 139.893 119.849 139.521 119.61 139.17C120.011 139.309 120.432 139.438 120.868 139.555C124.15 140.433 127.047 140.258 127.34 139.164C127.633 138.07 125.209 136.471 121.928 135.593C121.492 135.477 121.063 135.378 120.646 135.299C121.028 135.113 121.417 134.907 121.807 134.682C124.749 132.982 126.674 130.809 126.107 129.829C125.541 128.848 122.697 129.431 119.755 131.131C119.365 131.357 118.992 131.591 118.641 131.829Z" fill="white"/>
<circle cx="115.455" cy="135.984" r="2.81939" transform="rotate(-75.0218 115.455 135.984)" fill="#FED402"/>
<path fill-rule="evenodd" clip-rule="evenodd" d="M57.5817 45.2327C58.0175 45.3493 58.4382 45.4786 58.8393 45.6177C58.6008 45.2664 58.3668 44.8938 58.1411 44.5032C56.4413 41.5616 55.8582 38.7178 56.8387 38.1512C57.8192 37.5846 59.992 39.5098 61.6918 42.4514C61.9175 42.8419 62.1235 43.2308 62.3088 43.6129C62.3886 43.1958 62.4866 42.7668 62.6032 42.3309C63.4813 39.049 65.0799 36.6258 66.1738 36.9185C67.2678 37.2112 67.4429 40.1089 66.5648 43.3908C66.4482 43.8267 66.3189 44.2474 66.1797 44.6486C66.5311 44.4101 66.9038 44.176 67.2944 43.9503C70.2359 42.2505 73.0798 41.6674 73.6464 42.6479C74.213 43.6284 72.2878 45.8012 69.3462 47.501C68.9557 47.7267 68.5668 47.9327 68.1847 48.118C68.6018 48.1978 69.0308 48.2958 69.4665 48.4124C72.7484 49.2904 75.1716 50.889 74.879 51.983C74.5863 53.077 71.6885 53.252 68.4066 52.374C67.9709 52.2574 67.5504 52.1281 67.1493 51.989C67.3877 52.3402 67.6217 52.7128 67.8473 53.1033C69.5471 56.0448 70.1302 58.8887 69.1497 59.4553C68.1692 60.0219 65.9964 58.0966 64.2966 55.1551C64.0709 54.7645 63.8649 54.3756 63.6796 53.9936C63.5998 54.4107 63.5018 54.8398 63.3852 55.2757C62.5071 58.5576 60.9085 60.9808 59.8145 60.6881C58.7206 60.3954 58.5455 57.4977 59.4236 54.2158C59.5402 53.7798 59.6695 53.359 59.8087 52.9577C59.4573 53.1963 59.0845 53.4304 58.6938 53.6562C55.7523 55.356 52.9084 55.9391 52.3418 54.9586C51.7752 53.9781 53.7005 51.8053 56.642 50.1055C57.0325 49.8798 57.4213 49.6739 57.8032 49.4886C57.3863 49.4089 56.9574 49.3109 56.5218 49.1943C53.2399 48.3163 50.8167 46.7176 51.1094 45.6237C51.402 44.5297 54.2998 44.3547 57.5817 45.2327Z" fill="white"/>
<circle cx="62.9943" cy="48.8034" r="2.81939" transform="rotate(-75.0218 62.9943 48.8034)" fill="#FED402"/>
<path d="M78.5674 118.256H94.4144V141.85C94.4144 142.648 93.5644 143.158 92.8607 142.783L86.4909 139.385L80.121 142.783C79.4173 143.158 78.5674 142.648 78.5674 141.85V118.256Z" fill="#FEB1AA"/>
<path d="M60.6074 112.974C62.9237 116.706 66.1537 119.591 70.6438 119.841C75.2376 120.096 81.1256 117.673 86.4908 117.728C91.6401 117.78 96.7944 119.959 101.281 119.841C106.307 119.709 110.496 117.078 112.902 112.974" stroke="#433D3C" stroke-width="2.64116" stroke-linecap="round" stroke-linejoin="round"/>
</svg>
